<?xml version="1.0" encoding="UTF-8"?>
<svg id="Layer_1" data-name="Layer 1" xmlns="http://www.w3.org/2000/svg" xmlns:xlink="http://www.w3.org/1999/xlink" viewBox="0 0 1125 1125">
  <defs>
    <style>
      .cls-1 {
        fill: #058b7d;
      }

      .cls-1, .cls-2, .cls-3, .cls-4 {
        stroke-width: 0px;
      }

      .cls-5 {
        filter: url(#drop-shadow-2);
      }

      .cls-6 {
        filter: url(#drop-shadow-1);
      }

      .cls-2 {
        fill: #748287;
      }

      .cls-3 {
        fill: #009587;
      }

      .cls-4 {
        fill: #fff;
      }
    </style>
    <filter id="drop-shadow-1" filterUnits="userSpaceOnUse">
      <feOffset dx="5" dy="5"/>
      <feGaussianBlur result="blur" stdDeviation="5"/>
      <feFlood flood-color="#000" flood-opacity=".7"/>
      <feComposite in2="blur" operator="in"/>
      <feComposite in="SourceGraphic"/>
    </filter>
    <filter id="drop-shadow-2" filterUnits="userSpaceOnUse">
      <feOffset dx="5" dy="5"/>
      <feGaussianBlur result="blur-2" stdDeviation="5"/>
      <feFlood flood-color="#000" flood-opacity=".7"/>
      <feComposite in2="blur-2" operator="in"/>
      <feComposite in="SourceGraphic"/>
    </filter>
  </defs>
  <circle class="cls-4" cx="562.5" cy="562.5" r="528.49"/>
  <path class="cls-1" d="M562.53,1.3c310.57,0,561.11,251.32,561.04,562.78-.07,309.81-252.15,559.84-564.2,559.62C250.85,1123.48,1.16,870.8,1.43,559.07,1.69,252.12,254.01,1.3,562.53,1.3ZM50.9,562.25c-.02,281.86,228.8,511.78,509.5,511.97,283.68.19,513.59-228.17,513.71-510.24.11-283.5-228.43-513.15-510.74-513.2-283.18-.05-512.45,228.77-512.47,511.47Z"/>
  <path class="cls-1" d="M422.44,317.84c26.76-.08,53.58,4.36,78.76,13.47,12.25,4.44,23.92,10.32,35.11,16.96,9.99,5.92,19.44,12.7,29.5,18.49,0,0,6.52-5.13,9.68-7.38,106.59-76.24,265.09-47.44,337.82,61.62,42.78,64.15,50.93,149.98,20.99,221.03-23.78,56.43-68.37,101.03-111.9,144.1-52.43,51.88-104.86,103.75-157.3,155.63-26.69,26.41-56.98,54.47-94.48,56.31-34.22,1.68-68.03-22.37-77.69-55.23-1.53-5.21-2.63-10.82-6.25-14.87-4.46-4.99-11.56-6.35-17.95-8.34-21.67-6.72-39.77-24.08-47.38-45.46-2.7-7.58-4.5-16.14-10.72-21.24-4.49-3.68-10.45-4.82-15.98-6.57-19.9-6.29-36.47-22.28-43.47-41.93-2.2-6.17-3.66-12.94-8.18-17.67-4.47-4.67-11.05-6.45-17.09-8.75-41.97-15.96-65.31-69.08-48.67-110.79,8.55-21.44,25.34-38.35,41.69-54.64,55.77-55.53,111.54-111.05,167.31-166.58,1.77-1.76,6.81-6.43,6.81-6.43,0,0,5.72,4.69,8.14,7.1,31.83,31.69,63.66,63.37,95.49,95.06,8.4,8.36,22.26,16.93,30.66,8.57,8.32-8.28.07-22.07-8.05-30.55-16.11-16.84-32.22-33.67-48.44-50.41-28.96-29.89-59.54-60.32-98.52-74.91-55.14-20.63-121.95-3.5-161.35,40.25-24.52,27.23-37.73,63.64-38.62,100.09-.54,22.21,3.49,44.6,12.31,65.03-17.35,17.02-34.71,34.03-52.06,51.05-52.12-86.71-34.22-209.13,40.55-277.29,40.32-36.75,94.83-55.58,149.28-55.74ZM884.43,553.59c-1.04-40.63-14.4-77.78-42.31-109.83-11.16-12.81-24.25-23.92-38.71-32.85s-29.64-15.4-45.73-19.71c-15.99-4.28-32.59-6.25-49.14-5.8-16.68.45-33.28,3.37-49.1,8.69-6.76,2.27-13.37,4.98-19.78,8.11-7.84,3.82-15.35,8-21.8,13.94,0,0,4.47,5.25,8.03,8.61,16.74,15.82,31.24,31.73,47.79,47.76,13.88,13.45,22.34,29.29,25.9,48.32,7.15,38.27-9.66,74.73-43.3,92.39-30.89,16.21-75.35,9.51-100.52-15.3-17.89-17.63-36.18-34.92-53.19-53.37-6.89-7.47-10.65-4.85-15.89.41-23.63,23.71-47.33,47.34-70.95,71.05-22.79,22.87-45.69,45.64-68.14,68.84-6.14,6.35-9.34,14.17-3.87,23.21,4.74,7.82,11.86,5.99,18.49,4.84,4.92-.86,7.82-5.44,11.21-8.81,34.9-34.74,69.94-69.34,104.42-104.49,5.71-5.83,8.66-4.81,13.41.09,11.55,11.91,23.2,23.72,35.21,35.16,5.46,5.21,5.22,9.43.14,14.38-10.06,9.81-20.04,19.71-29.98,29.64-25.95,25.93-51.92,51.84-77.77,77.88-7.12,7.17-8.74,15.59-2.91,24.22,4.13,6.11,16.28,5.7,24.28-.51,3.52-2.73,6.7-5.93,9.85-9.09,32.16-32.28,64.38-64.49,96.31-96.99,6.88-7,11.81-9.21,19.35-.28,9.35,11.09,20.02,21.16,30.75,30.98,6.72,6.15,6.85,10.25.13,16.76-21.46,20.78-42.25,42.26-63.37,63.4-14.51,14.53-29.27,28.82-43.65,43.48-7.47,7.61-8.52,19.56-2.23,25.31,7.96,7.28,15.83,4.02,23.09-1.67,3.82-2.99,7.51-6.2,10.94-9.63,32.93-32.94,65.75-65.99,98.74-98.88,3.31-3.31,6.18-9.34,12.57-2.64,12.29,12.89,25.19,25.19,37.88,37.69,4.88,4.8,3.5,8.6-1.03,12.96-12.5,12.02-24.67,24.37-36.94,36.62-23.7,23.69-47.43,47.36-71.03,71.15-6.84,6.9-8.19,15.69-2.91,23.33,5.96,8.61,15.05,6.61,23.06,2.31,3.84-2.06,7.21-5.24,10.34-8.37,80.49-80.51,161.12-160.88,241.24-241.76,32.73-33.04,50.21-73.18,51.15-121.58Z"/>
  <path class="cls-1" d="M562.5,0C251.84,0,0,251.84,0,562.5s251.84,562.5,562.5,562.5,562.5-251.84,562.5-562.5S873.16,0,562.5,0ZM562.5,1073.71c-282.33,0-511.21-228.88-511.21-511.21S280.17,51.29,562.5,51.29s511.21,228.88,511.21,511.21-228.88,511.21-511.21,511.21Z"/>
  <g>
    <g id="GssaF4">
      <g>
        <path class="cls-2" d="M463.91,166.01c.77,6.97,1.05,13.98,2.18,20.92,2.89,17.75,9.35,34.1,19.09,49.17,13.59,21.04,32.05,36.73,53.8,48.78,2.08,3.04,5.52,4.21,8.46,6.07,1.37.87,2.99,1.4,4.13,2.73-.8.83-1.74.57-2.55.58-21.6.07-43.21.09-64.81.18-1.89,0-2.58-.88-3.06-2.52-1.84-6.31-3.85-12.57-5.64-18.9-.53-1.85-1.43-2.55-3.32-2.54-11.94.05-23.89.1-35.83-.03-2.43-.03-2.92,1.39-3.43,3.1-1.78,5.96-3.62,11.91-5.27,17.91-.61,2.22-1.66,3.05-4.04,3.01-8.96-.14-17.91-.09-26.87-.04-2.08.01-2.76-.24-1.87-2.65,6.79-18.52,13.4-37.1,20.07-55.67,7.77-21.61,15.54-43.22,23.31-64.84,2.09-5.83.86-5.31,7.74-5.32,5.97,0,11.94.04,17.91.06ZM454.32,246.41c3.51,0,7.02,0,10.54,0,1.8,0,2.56-.58,1.94-2.59-3.84-12.57-7.58-25.17-11.35-37.76-.2-.66-.21-1.57-1.05-1.64-1-.08-.85.94-1.03,1.55-3.81,12.49-7.58,24.99-11.41,37.47-.63,2.06-.1,3,2.1,2.98,3.42-.03,6.85,0,10.27,0Z"/>
        <path class="cls-2" d="M710.03,294.4c-4.81,0-9.62-.04-14.42.02-1.73.02-2.62-.55-3.13-2.24-1.92-6.41-4.08-12.75-6.02-19.16-.56-1.84-1.58-2.56-3.55-2.55-12.57.04-25.15.04-37.72,0-2.04,0-2.92.85-3.46,2.64-1.91,6.32-4.02,12.59-5.92,18.91-.52,1.73-1.35,2.42-3.27,2.41-20.71-.08-41.42-.09-62.13-.12-.28,0-.56.01-.83-.03-.77-.13-1.92.25-2.17-.7-.27-1.06.88-1.44,1.67-1.81,8.69-3.96,17.02-8.51,24.83-13.88,36.18-24.83,57.66-57.73,61.02-100.56.21-2.72.38-5.43.54-8.15.12-2,1.17-3.11,3.3-3.13,6.1-.06,12.2-.07,18.3-.11,1.27,0,1.87.54,2.38,1.71,4.5,10.3,8.08,20.91,12.08,31.37,9.25,24.24,18.35,48.53,27.51,72.79,2.49,6.6,4.96,13.22,7.52,19.8.82,2.11.26,2.86-2.11,2.81-4.81-.1-9.61-.03-14.42-.03ZM664.48,203.94c-.24.03-.48.05-.72.08-.21.48-.47.94-.63,1.43-4.03,12.77-8.04,25.55-12.09,38.31-.68,2.14.36,2.66,2.33,2.65,6.75-.02,13.5,0,20.25,0,4.13,0,4.33-.31,3.13-4.06-2.74-8.56-5.42-17.13-8.14-25.69-1.35-4.24-2.76-8.47-4.14-12.71Z"/>
      </g>
    </g>
    <g class="cls-6">
      <path class="cls-3" d="M463.91,166.01c.54-7.36.3-14.74.16-22.1-.22-11.06-.34-22.11.05-33.17.06-1.85.83-2.82,2.45-3.6,12.61-6.04,25.68-10.83,39.13-14.6,16.71-4.68,33.77-7.29,51.04-8.62,5.73-.44,11.4.48,17.05,1.11,15.72,1.77,31.18,4.9,46.34,9.48,11.6,3.5,22.91,7.77,33.89,12.92,1.4.66,1.98,1.5,1.98,3.01-.05,20.72.62,41.47-.27,62.15-1.29,30.16-12.73,56.55-32.68,79.18-12.86,14.58-28.12,26.05-45.58,34.65-5.19,2.56-10.39,5.06-15.71,7.33-1.14.49-2.1.42-3.27.07-5.32-1.59-9.94-4.69-15.05-6.74-1.54-.62-2.99-1.47-4.46-2.21-21.74-12.05-40.21-27.74-53.8-48.78-9.73-15.07-16.19-31.43-19.09-49.17-1.13-6.94-1.41-13.95-2.18-20.92ZM513.1,172.83c0,.88,0,1.76,0,2.63,0,21.16.02,42.32-.02,63.49,0,2.26.39,3.68,3.14,3.62,15.71-.34,31.46.69,47.14-.5,26-1.98,44.06-15.26,53.95-39.38,4.62-11.28,5.31-23.22,4.78-35.21-.89-20.47-7.87-38.05-24.49-51.12-10.47-8.23-22.34-12.51-35.47-12.88-15.01-.42-30.03-.21-45.05-.27-3.86-.01-3.99.14-3.99,4.01,0,21.86,0,43.73,0,65.59Z"/>
    </g>
    <g class="cls-5">
      <path class="cls-3" d="M546.46,172.46c0-13.26,0-26.53,0-39.79,0-3.56.1-3.71,3.74-3.64,5.25.11,10.53-.42,15.73.89,9.51,2.4,15.62,8.43,18.6,17.57,5.09,15.62,4.57,31.53,1.11,47.3-1.96,8.95-6.83,16.24-15.87,19.89-3.31,1.33-6.74,1.91-10.28,1.97-2.9.05-5.8.02-8.7.03q-4.32.01-4.33-4.43c0-8.96,0-17.92,0-26.88,0-4.3,0-8.61,0-12.91Z"/>
    </g>
  </g>
</svg>